<svg version="1.1"
    width="100%" height="100%"
    viewBox="-3 -3 14 14"
    xmlns="http://www.w3.org/2000/svg">

<defs>
    <style><![CDATA[
    line, polyline {
        stroke-width: 1.3;
        stroke-linecap: square;
        fill: none;
    }
    #blau {
        stroke: #002157;
    }
    #i {
        stroke: #003663;
    }
    #bdot {
        stroke: #0076a3;
    }
    #bdot:hover {
        stroke: darkslateblue;
    }
    .idots {
        stroke: #005b7f;
    }
    .idots:hover {
        stroke: indigo;
    }
    ]]></style>
</defs>

<g transform="rotate(-45 4 4)">

    <g id="blau">

        <!-- b -->
        <line id="bdot" x1="8" x2="8" y1="8" y2="8" />
        <polyline points="8, 4 8, 6 6, 6" />

        <!-- la -->
        <polyline points="5, 6 6, 6 6, 8 4, 8 4, 6 5, 6 5, 4" />
        <polyline points="6, 2 6, 4 4, 4 4, 2" />

    
        <!-- w -->
        <polyline points="4, 8 0, 8 0, 6 2, 6 2, 8" />
        <polyline points="0, 6 0, 4 2, 4" />

    </g>

    <g id="i">

        <!-- i -->
        <polyline points="2, 2 2, 0 8, 0 8, 2" />
        <line class="idots" x1="0" x2="0" y1="0" y2="0" />
        <line class="idots" x1="0" x2="0" y1="2" y2="2" />

    </g>

    </g>

</svg>